<?xml version="1.0" encoding="UTF-8"?>
<svg xmlns="http://www.w3.org/2000/svg" xmlns:xlink="http://www.w3.org/1999/xlink" width="80pt" height="80pt" viewBox="0 0 80 80" version="1.1">
  <path style="stroke:none;fill-rule:evenodd;fill:rgb(92.54902%,94.117647%,94.509804%);fill-opacity:1;" d="M 5 25 L 75 25 L 75 63 L 5 63 Z M 5 25 "/>
  <path style="stroke:none;fill-rule:nonzero;fill:rgb(40.000001%,40.000001%,40.000001%);fill-opacity:1;" d="M 74 26 L 74 62 L 6 62 L 6 26 L 74 26 M 76 24 L 4 24 L 4 64 L 76 64 Z M 76 24 "/>
  <path style="stroke:none;fill-rule:nonzero;fill:rgb(92.54902%,94.117647%,94.509804%);fill-opacity:1;" d="M 3 63 L 77 63 L 77 69 L 3 69 Z M 3 63 "/>
  <path style="stroke:none;fill-rule:nonzero;fill:rgb(40.000001%,40.000001%,40.000001%);fill-opacity:1;" d="M 78 70 L 78 74 L 2 74 L 2 70 L 78 70 M 80 68 L 0 68 L 0 76 L 80 76 Z M 80 68 "/>
  <path style="stroke:none;fill-rule:nonzero;fill:rgb(40.000001%,40.000001%,40.000001%);fill-opacity:1;" d="M 76 64 L 76 68 L 4 68 L 4 64 L 76 64 M 78 62 L 2 62 L 2 70 L 78 70 Z M 78 62 "/>
  <path style="stroke:none;fill-rule:nonzero;fill:rgb(92.54902%,94.117647%,94.509804%);fill-opacity:1;" d="M 3 25 L 3 20.664062 L 40 5.085938 L 77 20.664062 L 77 25 Z M 3 25 "/>
  <path style="stroke:none;fill-rule:nonzero;fill:rgb(40.000001%,40.000001%,40.000001%);fill-opacity:1;" d="M 40 6.171875 L 76 21.328125 L 76 24 L 4 24 L 4 21.328125 L 40 6.171875 M 40 4 L 2 20 L 2 26 L 78 26 L 78 20 Z M 40 4 "/>
  <path style="stroke:none;fill-rule:nonzero;fill:rgb(92.54902%,94.117647%,94.509804%);fill-opacity:1;" d="M 1 69 L 79 69 L 79 75 L 1 75 Z M 1 69 "/>
  <path style="stroke:none;fill-rule:evenodd;fill:rgb(80.000001%,80.000001%,80.000001%);fill-opacity:1;" d="M 62 26 L 66 26 L 66 62 L 62 62 Z M 50 26 L 54 26 L 54 62 L 50 62 Z M 38 26 L 42 26 L 42 62 L 38 62 Z M 26 26 L 30 26 L 30 62 L 26 62 Z M 14 26 L 18 26 L 18 62 L 14 62 Z M 14 26 "/>
  <path style="fill:none;stroke-width:1;stroke-linecap:butt;stroke-linejoin:miter;stroke:rgb(80.000001%,80.000001%,80.000001%);stroke-opacity:1;stroke-miterlimit:10;" d="M 159.1 66.65 L 12.9 66.65 " transform="matrix(0.465116,0,0,0.465116,0,0)"/>
</svg>
