<svg width="24" height="24" viewBox="0 0 24 24" fill="none" xmlns="http://www.w3.org/2000/svg">
<g clip-path="url(#clip0_9911_9474)">
<path d="M23.4368 8.25H20.6304L19.8504 6.3C19.0489 4.29516 17.1359 3 14.9764 3H9.02326C6.8642 3 4.95076 4.29516 4.14873 6.3L3.36873 8.25H0.562798C0.196704 8.25 -0.0718892 8.59406 0.0171733 8.94891L0.298423 10.0739C0.360767 10.3242 0.585766 10.5 0.844047 10.5H1.78483C1.1553 11.0498 0.749829 11.8491 0.749829 12.75V15C0.749829 15.7556 1.03858 16.4377 1.49983 16.9655V19.5C1.49983 20.3283 2.17155 21 2.99983 21H4.49983C5.32811 21 5.99982 20.3283 5.99982 19.5V18H17.9998V19.5C17.9998 20.3283 18.6715 21 19.4998 21H20.9998C21.8281 21 22.4998 20.3283 22.4998 19.5V16.9655C22.9611 16.4381 23.2498 15.7561 23.2498 15V12.75C23.2498 11.8491 22.8443 11.0498 22.2153 10.5H23.1561C23.4143 10.5 23.6393 10.3242 23.7017 10.0739L23.9829 8.94891C24.0715 8.59406 23.8029 8.25 23.4368 8.25ZM6.93404 7.41422C7.27576 6.56016 8.1031 6 9.02326 6H14.9764C15.8965 6 16.7239 6.56016 17.0656 7.41422L17.9998 9.75H5.99982L6.93404 7.41422ZM4.49983 14.9906C3.59983 14.9906 2.99983 14.3925 2.99983 13.4953C2.99983 12.5981 3.59983 12 4.49983 12C5.39982 12 6.74982 13.3458 6.74982 14.243C6.74982 15.1402 5.39982 14.9906 4.49983 14.9906ZM19.4998 14.9906C18.5998 14.9906 17.2498 15.1402 17.2498 14.243C17.2498 13.3458 18.5998 12 19.4998 12C20.3998 12 20.9998 12.5981 20.9998 13.4953C20.9998 14.3925 20.3998 14.9906 19.4998 14.9906Z" fill="black"/>
</g>
<defs>
<clipPath id="clip0_9911_9474">
<rect width="24" height="24" fill="white"/>
</clipPath>
</defs>
</svg>
