<svg xmlns="http://www.w3.org/2000/svg" viewBox="0 0 64 64"><path d="M 21.144531 6 C 17.078125 6 13.5 8.746094 12.449219 12.683594 L 10.5 20 L 5 20 C 3.347656 20 2 21.347656 2 23 L 2 25 C 2 26.652344 3.347656 28 5 28 L 5.472656 28 C 4.515625 29.84375 4 31.914063 4 34 L 4 45 C 4 46.628906 4.792969 48.0625 6 48.972656 L 6 54 C 6 54.730469 6.210938 55.410156 6.554688 56 L 1 56 C 0.445313 56 0 56.449219 0 57 C 0 57.550781 0.445313 58 1 58 L 63 58 C 63.554688 58 64 57.550781 64 57 C 64 56.449219 63.554688 56 63 56 L 57.441406 56 C 57.789063 55.410156 58 54.730469 58 54 L 58 48.972656 C 59.207031 48.0625 60 46.625 60 45 L 60 34 C 60 31.914063 59.484375 29.84375 58.527344 28 L 59 28 C 60.652344 28 62 26.652344 62 25 L 62 23 C 62 21.347656 60.652344 20 59 20 L 53.5 20 L 51.546875 12.683594 C 50.5 8.746094 46.921875 6 42.855469 6 Z M 21.144531 8 L 42.855469 8 C 46.019531 8 48.800781 10.136719 49.617188 13.195313 L 51.636719 20.761719 C 51.933594 21.878906 52.4375 22.914063 53.128906 23.84375 L 53.726563 24.636719 L 51.976563 25.488281 C 51.296875 25.824219 50.535156 26 49.777344 26 L 48.910156 26 C 48.433594 23.167969 45.96875 21 43 21 C 40.03125 21 37.570313 23.167969 37.089844 26 L 14.316406 26 C 13.554688 26 12.789063 25.820313 12.101563 25.480469 L 10.304688 24.59375 L 10.871094 23.84375 C 11.5625 22.917969 12.066406 21.878906 12.363281 20.761719 L 14.382813 13.195313 C 15.199219 10.136719 17.980469 8 21.144531 8 Z M 29.917969 12 C 29.363281 12 28.917969 12.449219 28.917969 13 C 28.917969 13.550781 29.363281 14 29.917969 14 L 34.167969 14 C 34.722656 14 35.167969 13.550781 35.167969 13 C 35.167969 12.449219 34.722656 12 34.167969 12 Z M 5 22 L 9.695313 22 C 9.5625 22.21875 9.425781 22.433594 9.269531 22.640625 L 6.75 26 L 5 26 C 4.449219 26 4 25.550781 4 25 L 4 23 C 4 22.449219 4.449219 22 5 22 Z M 54.308594 22 L 59 22 C 59.550781 22 60 22.449219 60 23 L 60 25 C 60 25.550781 59.550781 26 59 26 L 57.25 26 L 54.730469 22.640625 C 54.574219 22.433594 54.4375 22.21875 54.308594 22 Z M 43 23 C 44.859375 23 46.410156 24.28125 46.859375 26 L 39.140625 26 C 39.589844 24.28125 41.140625 23 43 23 Z M 9.085938 26.21875 L 11.21875 27.277344 C 12.175781 27.75 13.25 28 14.316406 28 L 49.777344 28 C 50.839844 28 51.902344 27.753906 52.855469 27.285156 L 54.949219 26.265625 L 55.800781 27.402344 C 56.855469 28.808594 57.558594 30.464844 57.847656 32.199219 C 57.789063 32.203125 57.730469 32.195313 57.671875 32.207031 L 49.34375 33.59375 C 47.40625 33.917969 46 35.578125 46 37.542969 L 46 38 C 46 39.101563 46.898438 40 48 40 L 58 40 L 58 45 C 58 46.652344 56.652344 48 55 48 L 9 48 C 7.347656 48 6 46.652344 6 45 L 6 40 L 16 40 C 17.101563 40 18 39.101563 18 38 L 18 37.542969 C 18 35.578125 16.59375 33.917969 14.65625 33.59375 L 6.328125 32.207031 C 6.269531 32.195313 6.210938 32.203125 6.152344 32.199219 C 6.441406 30.464844 7.144531 28.808594 8.199219 27.402344 Z M 6 34.179688 L 14.328125 35.566406 C 15.296875 35.730469 16 36.5625 16 37.542969 L 16 38 L 6 38 Z M 58 34.183594 L 58 38 L 48 38 L 48 37.542969 C 48 36.5625 48.703125 35.730469 49.671875 35.566406 Z M 22 36 C 21.445313 36 21 36.449219 21 37 L 21 39 C 21 39.550781 21.445313 40 22 40 C 22.554688 40 23 39.550781 23 39 L 23 37 C 23 36.449219 22.554688 36 22 36 Z M 27 36 C 26.445313 36 26 36.449219 26 37 L 26 39 C 26 39.550781 26.445313 40 27 40 C 27.554688 40 28 39.550781 28 39 L 28 37 C 28 36.449219 27.554688 36 27 36 Z M 32 36 C 31.445313 36 31 36.449219 31 37 L 31 39 C 31 39.550781 31.445313 40 32 40 C 32.554688 40 33 39.550781 33 39 L 33 37 C 33 36.449219 32.554688 36 32 36 Z M 37 36 C 36.445313 36 36 36.449219 36 37 L 36 39 C 36 39.550781 36.445313 40 37 40 C 37.554688 40 38 39.550781 38 39 L 38 37 C 38 36.449219 37.554688 36 37 36 Z M 42 36 C 41.445313 36 41 36.449219 41 37 L 41 39 C 41 39.550781 41.445313 40 42 40 C 42.554688 40 43 39.550781 43 39 L 43 37 C 43 36.449219 42.554688 36 42 36 Z M 8.917969 42 C 8.363281 42 7.917969 42.449219 7.917969 43 C 7.917969 43.550781 8.363281 44 8.917969 44 L 13.167969 44 C 13.722656 44 14.167969 43.550781 14.167969 43 C 14.167969 42.449219 13.722656 42 13.167969 42 Z M 16.917969 42 C 16.363281 42 15.917969 42.449219 15.917969 43 C 15.917969 43.550781 16.363281 44 16.917969 44 L 47.167969 44 C 47.722656 44 48.167969 43.550781 48.167969 43 C 48.167969 42.449219 47.722656 42 47.167969 42 Z M 50.917969 42 C 50.363281 42 49.917969 42.449219 49.917969 43 C 49.917969 43.550781 50.363281 44 50.917969 44 L 55.167969 44 C 55.722656 44 56.167969 43.550781 56.167969 43 C 56.167969 42.449219 55.722656 42 55.167969 42 Z M 8 50 L 14 50 L 14 54 C 14 55.101563 13.101563 56 12 56 L 10 56 C 8.898438 56 8 55.101563 8 54 Z M 16 50 L 48 50 L 48 54 C 48 54.730469 48.210938 55.410156 48.558594 56 L 15.441406 56 C 15.789063 55.410156 16 54.730469 16 54 Z M 50 50 L 56 50 L 56 54 C 56 55.101563 55.101563 56 54 56 L 52 56 C 50.898438 56 50 55.101563 50 54 Z"/></svg>
