<?xml version="1.0"?><svg xmlns="http://www.w3.org/2000/svg" viewBox="0 0 64 64">    <path d="M 41 2 C 31.075 2 23 10.075 23 20 C 23 29.925 31.075 38 41 38 C 50.925 38 59 29.925 59 20 C 59 10.075 50.925 2 41 2 z M 41 4 C 49.822 4 57 11.178 57 20 C 57 28.822 49.822 36 41 36 C 32.178 36 25 28.822 25 20 C 25 11.178 32.178 4 41 4 z M 41 7 C 33.832 7 28 12.832 28 20 C 28 27.168 33.832 33 41 33 C 48.168 33 54 27.168 54 20 C 54 17.437 53.251031 14.955219 51.832031 12.824219 C 51.526031 12.365219 50.903312 12.240875 50.445312 12.546875 C 49.985312 12.852875 49.860969 13.473594 50.167969 13.933594 C 51.365969 15.734594 52 17.833 52 20 C 52 26.065 47.065 31 41 31 C 34.935 31 30 26.065 30 20 C 30 13.935 34.935 9 41 9 C 41.31 9 41.614969 9.021875 41.917969 9.046875 C 42.478969 9.090875 42.949094 8.6828125 42.996094 8.1328125 C 43.041094 7.5828125 42.632031 7.0996875 42.082031 7.0546875 C 41.725031 7.0246875 41.366 7 41 7 z M 46.03125 8.1015625 C 45.641344 8.0895156 45.264297 8.3070937 45.091797 8.6835938 C 44.859797 9.1855938 45.080031 9.7807188 45.582031 10.011719 C 46.210031 10.299719 46.827016 10.661938 47.416016 11.085938 C 47.593016 11.212938 47.796047 11.273438 47.998047 11.273438 C 48.309047 11.273437 48.6165 11.128422 48.8125 10.857422 C 49.1345 10.409422 49.031984 9.7858906 48.583984 9.4628906 C 47.891984 8.9638906 47.161969 8.5363594 46.417969 8.1933594 C 46.291969 8.1356094 46.161219 8.1055781 46.03125 8.1015625 z M 41 11 C 40.448 11 40 11.448 40 12 L 40 13 C 37.791 13 36 14.791 36 17 C 36 19.209 37.791 21 40 21 L 42 21 C 43.105 21 44 21.895 44 23 C 44 24.105 43.105 25 42 25 L 42 23 C 42 22.448 41.552 22 41 22 C 40.448 22 40 22.448 40 23 L 40 25 C 38.895 25 38 24.105 38 23 C 38 22.448 37.552 22 37 22 C 36.448 22 36 22.448 36 23 C 36 25.209 37.791 27 40 27 L 40 28 C 40 28.552 40.448 29 41 29 C 41.552 29 42 28.552 42 28 L 42 27 C 44.209 27 46 25.209 46 23 C 46 20.791 44.209 19 42 19 L 42 17 C 42 16.448 41.552 16 41 16 C 40.448 16 40 16.448 40 17 L 40 19 C 38.895 19 38 18.105 38 17 C 38 15.895 38.895 15 40 15 L 42 15 C 43.105 15 44 15.895 44 17 C 44 17.552 44.448 18 45 18 C 45.552 18 46 17.552 46 17 C 46 14.791 44.209 13 42 13 L 42 12 C 42 11.448 41.552 11 41 11 z M 18.326172 35.322266 C 17.722531 35.308953 17.115719 35.338656 16.511719 35.410156 L 4.6484375 36.800781 C 3.2734375 36.962781 2.2083438 38.037 2.0273438 39.375 C 2.0083438 39.514 1.999 39.656781 2 39.800781 L 2 52.439453 C 2 54.096453 3.3420469 55.439453 4.9980469 55.439453 C 5.2440469 55.439453 5.4895156 55.409609 5.7285156 55.349609 L 12.283203 53.710938 C 13.965203 53.283938 15.745297 53.497547 17.279297 54.310547 L 29.861328 60.939453 C 32.471328 62.305453 35.585312 62.305453 38.195312 60.939453 L 59.480469 49.939453 C 61.775469 48.741453 62.664797 45.908328 61.466797 43.611328 C 61.155797 43.014328 60.720453 42.493078 60.189453 42.080078 L 60.140625 42.050781 C 59.007625 41.171781 57.531578 40.865703 56.142578 41.220703 L 42.712891 44.699219 C 41.984891 42.538219 39.887234 41.145547 37.615234 41.310547 L 35.427734 41.470703 C 34.584734 41.523703 33.743469 41.361 32.980469 41 L 23.576172 36.560547 C 21.925422 35.782047 20.137094 35.362203 18.326172 35.322266 z M 18.240234 37.320312 C 19.778203 37.359406 21.296563 37.722375 22.695312 38.390625 L 32.099609 42.830078 C 33.186609 43.343078 34.388891 43.567469 35.587891 43.480469 L 37.775391 43.320312 C 39.426391 43.198313 40.862375 44.439797 40.984375 46.091797 C 40.990375 46.167797 40.992187 46.244313 40.992188 46.320312 L 40.992188 46.730469 C 40.991188 47.123469 40.761344 47.479625 40.402344 47.640625 L 37.404297 48.970703 C 35.188297 49.963703 32.666156 50.016141 30.410156 49.119141 L 25.412109 47.119141 C 24.899109 46.915141 24.317281 47.165687 24.113281 47.679688 C 23.909281 48.193688 24.159828 48.776469 24.673828 48.980469 L 29.671875 50.980469 C 32.442875 52.084469 35.542625 52.019781 38.265625 50.800781 L 41.263672 49.470703 C 42.324672 48.965703 42.992656 47.886937 42.972656 46.710938 L 56.613281 43.169922 C 58.021281 42.715922 59.529422 43.489438 59.982422 44.898438 C 60.402422 46.202438 59.772484 47.612922 58.521484 48.169922 L 58.511719 48.140625 L 37.226562 59.140625 C 35.197563 60.200625 32.779 60.200625 30.75 59.140625 L 18.169922 52.539062 C 16.214922 51.508063 13.947734 51.234531 11.802734 51.769531 L 5.2382812 53.410156 C 4.7022812 53.543156 4.1593438 53.215688 4.0273438 52.679688 C 4.0053437 52.591687 3.9950469 52.501156 3.9980469 52.410156 L 3.9980469 39.779297 C 3.9940469 39.270297 4.3749063 38.840297 4.8789062 38.779297 L 16.699219 37.390625 C 17.212469 37.331375 17.727578 37.307281 18.240234 37.320312 z M 7 40 C 6.448 40 6 40.448 6 41 C 6 41.552 6.448 42 7 42 L 9 42 C 9.552 42 10 41.552 10 41 C 10 40.448 9.552 40 9 40 L 7 40 z M 7 45 C 6.448 45 6 45.448 6 46 C 6 46.552 6.448 47 7 47 L 9 47 C 9.552 47 10 46.552 10 46 C 10 45.448 9.552 45 9 45 L 7 45 z M 7 50 C 6.448 50 6 50.448 6 51 C 6 51.552 6.448 52 7 52 L 9 52 C 9.552 52 10 51.552 10 51 C 10 50.448 9.552 50 9 50 L 7 50 z"/></svg>
