<svg width="24" height="24" viewBox="0 0 24 24" fill="none" xmlns="http://www.w3.org/2000/svg">
<path d="M22.9161 10.56H1.08574L2.69374 5.33761C2.78296 5.04214 2.9653 4.78343 3.21356 4.60005C3.46182 4.41666 3.7627 4.31844 4.07134 4.32001H7.22494C7.21054 4.47841 7.20094 4.63681 7.20094 4.80001C7.20003 5.8395 7.53882 6.85083 8.16574 7.68001H7.68094C7.55363 7.68001 7.43154 7.73058 7.34153 7.82059C7.25151 7.91061 7.20094 8.0327 7.20094 8.16001C7.20094 8.28731 7.25151 8.4094 7.34153 8.49942C7.43154 8.58943 7.55363 8.64001 7.68094 8.64001H16.3209C16.4482 8.64001 16.5703 8.58943 16.6603 8.49942C16.7504 8.4094 16.8009 8.28731 16.8009 8.16001C16.8009 8.0327 16.7504 7.91061 16.6603 7.82059C16.5703 7.73058 16.4482 7.68001 16.3209 7.68001H15.8361C16.4631 6.85083 16.8018 5.8395 16.8009 4.80001C16.8009 4.63681 16.7913 4.47841 16.7769 4.32001H19.9305C20.2392 4.31843 20.5401 4.41666 20.7883 4.60004C21.0366 4.78342 21.2189 5.04214 21.3081 5.33761L22.9161 10.56ZM13.736 13.92C13.4766 13.9194 13.2197 13.9704 12.9801 14.0699C12.7406 14.1695 12.5232 14.3156 12.3405 14.4998C12.2487 14.5865 12.1272 14.6348 12.0009 14.6348C11.8747 14.6348 11.7532 14.5865 11.6613 14.4998C11.4787 14.3156 11.2613 14.1695 11.0218 14.0699C10.7822 13.9704 10.5253 13.9194 10.2659 13.92C9.74165 13.9214 9.23941 14.1308 8.86936 14.5021C8.4993 14.8733 8.29164 15.3763 8.29195 15.9005C8.29195 18.0056 11.1415 20.0006 12.0009 20.5547C12.8604 20.0006 15.7099 18.0056 15.7099 15.9005C15.7102 15.3763 15.5025 14.8734 15.1325 14.5021C14.7624 14.1308 14.2602 13.9215 13.736 13.92ZM18.2409 13.92C18.2409 13.983 18.2533 14.0455 18.2774 14.1037C18.3016 14.162 18.3369 14.2149 18.3815 14.2595C18.4261 14.304 18.479 14.3394 18.5372 14.3635C18.5955 14.3876 18.6579 14.4 18.7209 14.4H23.0409V16.8H18.7209C18.5936 16.8 18.4715 16.8506 18.3815 16.9406C18.2915 17.0306 18.2409 17.1527 18.2409 17.28C18.2409 17.4073 18.2915 17.5294 18.3815 17.6194C18.4715 17.7094 18.5936 17.76 18.7209 17.76H23.0409V20.16H18.7209C18.5936 20.16 18.4715 20.2106 18.3815 20.3006C18.2915 20.3906 18.2409 20.5127 18.2409 20.64C18.2409 20.7673 18.2915 20.8894 18.3815 20.9794C18.4715 21.0694 18.5936 21.12 18.7209 21.12H23.0409V21.6C23.0405 21.9818 22.8887 22.3478 22.6187 22.6178C22.3487 22.8877 21.9827 23.0396 21.6009 23.04H2.40094C2.01915 23.0396 1.65313 22.8877 1.38316 22.6178C1.1132 22.3478 0.961354 21.9818 0.960938 21.6V21.12H5.28094C5.40824 21.12 5.53033 21.0694 5.62035 20.9794C5.71037 20.8894 5.76094 20.7673 5.76094 20.64C5.76094 20.5127 5.71037 20.3906 5.62035 20.3006C5.53033 20.2106 5.40824 20.16 5.28094 20.16H0.960938V17.76H5.28094C5.40824 17.76 5.53033 17.7094 5.62035 17.6194C5.71037 17.5294 5.76094 17.4073 5.76094 17.28C5.76094 17.1527 5.71037 17.0306 5.62035 16.9406C5.53033 16.8506 5.40824 16.8 5.28094 16.8H0.960938V14.4H5.28094C5.40824 14.4 5.53033 14.3494 5.62035 14.2594C5.71037 14.1694 5.76094 14.0473 5.76094 13.92C5.76094 13.7927 5.71037 13.6706 5.62035 13.5806C5.53033 13.4906 5.40824 13.44 5.28094 13.44H0.960938V11.52H23.0409V13.44H18.7209C18.6579 13.44 18.5955 13.4524 18.5372 13.4765C18.479 13.5006 18.4261 13.536 18.3815 13.5806C18.3369 13.6251 18.3016 13.6781 18.2774 13.7363C18.2533 13.7945 18.2409 13.857 18.2409 13.92ZM16.6699 15.9005C16.6699 15.1218 16.361 14.3749 15.811 13.8236C15.2609 13.2724 14.5147 12.9618 13.736 12.96C13.1116 12.9583 12.5032 13.1576 12.0009 13.5286C11.4987 13.1576 10.8903 12.9583 10.2659 12.96C9.48714 12.9618 8.74092 13.2723 8.1909 13.8236C7.64088 14.3749 7.33198 15.1218 7.33195 15.9005C7.33195 18.9174 11.5784 21.4294 11.7591 21.5349C11.8328 21.5768 11.9161 21.5988 12.0009 21.5988C12.0857 21.5988 12.1691 21.5768 12.2428 21.5349C12.4236 21.4293 16.6699 18.9173 16.6699 15.9005H16.6699ZM8.16094 4.80001C8.15968 4.15754 8.31965 3.52502 8.62618 2.96039C8.93271 2.39576 9.37601 1.91707 9.91548 1.56815C10.455 1.21924 11.0733 1.01125 11.714 0.963249C12.3547 0.915246 12.9972 1.02876 13.5826 1.29339C14.168 1.55802 14.6777 1.96531 15.065 2.47795C15.4522 2.9906 15.7047 3.59222 15.7992 4.2277C15.8937 4.86318 15.8272 5.51222 15.6059 6.11536C15.3846 6.7185 15.0154 7.25648 14.5323 7.68001H9.46954C9.0588 7.32092 8.72955 6.87819 8.50386 6.38149C8.27817 5.88479 8.16125 5.34558 8.16094 4.80001ZM11.5209 3.36001C11.5209 3.42305 11.5333 3.48547 11.5574 3.54371C11.5816 3.60196 11.6169 3.65488 11.6615 3.69945C11.7061 3.74403 11.759 3.77939 11.8172 3.8035C11.8755 3.82762 11.9379 3.84002 12.0009 3.84001C12.2555 3.8403 12.4995 3.94153 12.6794 4.12151C12.8594 4.30148 12.9606 4.54549 12.9609 4.80001C12.9609 4.92731 13.0115 5.0494 13.1015 5.13942C13.1915 5.22943 13.3136 5.28001 13.4409 5.28001C13.5682 5.28001 13.6903 5.22943 13.7803 5.13942C13.8704 5.0494 13.9209 4.92731 13.9209 4.80001C13.9204 4.29096 13.7179 3.80291 13.358 3.44296C12.998 3.08301 12.51 2.88055 12.0009 2.88001C11.9379 2.87999 11.8755 2.89239 11.8172 2.91651C11.759 2.94063 11.7061 2.97598 11.6615 3.02056C11.6169 3.06513 11.5816 3.11806 11.5574 3.1763C11.5333 3.23454 11.5209 3.29697 11.5209 3.36001ZM10.0809 4.80001C10.0815 5.30905 10.2839 5.7971 10.6439 6.15705C11.0038 6.517 11.4919 6.71946 12.0009 6.72001C12.1282 6.72001 12.2503 6.66943 12.3403 6.57942C12.4304 6.4894 12.4809 6.36731 12.4809 6.24001C12.4809 6.1127 12.4304 5.99061 12.3403 5.90059C12.2503 5.81058 12.1282 5.76001 12.0009 5.76001C11.7464 5.75972 11.5024 5.65848 11.3224 5.47851C11.1425 5.29853 11.0412 5.05452 11.0409 4.80001C11.0409 4.6727 10.9904 4.55061 10.9003 4.46059C10.8103 4.37058 10.6882 4.32001 10.5609 4.32001C10.4336 4.32001 10.3115 4.37058 10.2215 4.46059C10.1315 4.55061 10.0809 4.6727 10.0809 4.80001Z" fill="black"/>
</svg>
