<svg width="24" height="24" viewBox="0 0 24 24" fill="none" xmlns="http://www.w3.org/2000/svg">
<path d="M10.5469 0H14.4531C15.1025 0 15.625 0.522461 15.625 1.17188V9.375H19.9072C20.7764 9.375 21.2109 10.4248 20.5957 11.04L13.1689 18.4717C12.8027 18.8379 12.2021 18.8379 11.8359 18.4717L4.39941 11.04C3.78418 10.4248 4.21875 9.375 5.08789 9.375H9.375V1.17188C9.375 0.522461 9.89746 0 10.5469 0ZM25 18.3594V23.8281C25 24.4775 24.4775 25 23.8281 25H1.17188C0.522461 25 0 24.4775 0 23.8281V18.3594C0 17.71 0.522461 17.1875 1.17188 17.1875H8.33496L10.7275 19.5801C11.709 20.5615 13.291 20.5615 14.2725 19.5801L16.665 17.1875H23.8281C24.4775 17.1875 25 17.71 25 18.3594ZM18.9453 22.6562C18.9453 22.1191 18.5059 21.6797 17.9688 21.6797C17.4316 21.6797 16.9922 22.1191 16.9922 22.6562C16.9922 23.1934 17.4316 23.6328 17.9688 23.6328C18.5059 23.6328 18.9453 23.1934 18.9453 22.6562ZM22.0703 22.6562C22.0703 22.1191 21.6309 21.6797 21.0938 21.6797C20.5566 21.6797 20.1172 22.1191 20.1172 22.6562C20.1172 23.1934 20.5566 23.6328 21.0938 23.6328C21.6309 23.6328 22.0703 23.1934 22.0703 22.6562Z" fill="white"/>
</svg>
