<svg width="24" height="25" viewBox="0 0 24 25" fill="none" xmlns="http://www.w3.org/2000/svg">
  <path d="M12 2.33076C15.2041 2.33076 15.5836 2.34303 16.849 2.40109C18.019 2.45479 18.6544 2.65139 19.0773 2.81662C19.6373 3.03555 20.0371 3.29711 20.457 3.71939C20.8769 4.14168 21.137 4.54375 21.3546 5.10702C21.519 5.53232 21.7145 6.17133 21.7679 7.34793C21.8256 8.62053 21.8378 9.00219 21.8378 12.2246C21.8378 15.447 21.8256 15.8286 21.7679 17.1012C21.7145 18.2778 21.519 18.9169 21.3546 19.3422C21.137 19.9054 20.8769 20.3075 20.457 20.7298C20.0371 21.1521 19.6373 21.4136 19.0773 21.6325C18.6544 21.7978 18.019 21.9944 16.849 22.0481C15.5838 22.1061 15.2043 22.1184 12 22.1184C8.79563 22.1184 8.41613 22.1061 7.15097 22.0481C5.98098 21.9944 5.34559 21.7978 4.92274 21.6325C4.36261 21.4136 3.96282 21.1521 3.54293 20.7298C3.12303 20.3075 2.86295 19.9054 2.64531 19.3422C2.48097 18.9169 2.28548 18.2778 2.23209 17.1012C2.17435 15.8286 2.16216 15.447 2.16216 12.2246C2.16216 9.00219 2.17435 8.62053 2.23209 7.34798C2.28548 6.17133 2.48097 5.53232 2.64531 5.10702C2.86295 4.54375 3.12303 4.14168 3.54293 3.71939C3.96282 3.29711 4.36261 3.03555 4.92274 2.81662C5.34559 2.65139 5.98098 2.45479 7.15092 2.40109C8.41632 2.34303 8.79582 2.33076 12 2.33076ZM12 0.15625C8.74095 0.15625 8.33234 0.170143 7.05241 0.228875C5.77511 0.287511 4.90283 0.491491 4.1395 0.789845C3.35039 1.09826 2.68118 1.51091 2.01406 2.18183C1.34695 2.85274 0.936629 3.52576 0.62996 4.31936C0.333295 5.08704 0.13047 5.96428 0.0721656 7.24886C0.0137663 8.53603 0 8.94701 0 12.2246C0 15.5022 0.0137663 15.9131 0.0721656 17.2003C0.13047 18.4849 0.333295 19.3621 0.62996 20.1298C0.936629 20.9234 1.34695 21.5964 2.01406 22.2673C2.68118 22.9383 3.35039 23.3509 4.1395 23.6593C4.90283 23.9577 5.77511 24.1617 7.05241 24.2203C8.33234 24.279 8.74095 24.2929 12 24.2929C15.259 24.2929 15.6677 24.279 16.9475 24.2203C18.2248 24.1617 19.0971 23.9577 19.8605 23.6593C20.6496 23.3509 21.3188 22.9383 21.9859 22.2673C22.653 21.5964 23.0633 20.9234 23.37 20.1298C23.6667 19.3621 23.8695 18.4849 23.9278 17.2003C23.9862 15.9131 24 15.5022 24 12.2246C24 8.94701 23.9862 8.53603 23.9278 7.24886C23.8695 5.96428 23.6667 5.08704 23.37 4.31936C23.0633 3.52576 22.653 2.85274 21.9859 2.18183C21.3188 1.51091 20.6496 1.09826 19.8605 0.789845C19.0971 0.491491 18.2248 0.287511 16.9475 0.228875C15.6677 0.170143 15.259 0.15625 12 0.15625ZM12 6.02732C8.59671 6.02732 5.83779 8.80195 5.83779 12.2246C5.83779 15.6472 8.59671 18.4218 12 18.4218C15.4032 18.4218 18.1622 15.6472 18.1622 12.2246C18.1622 8.80195 15.4032 6.02732 12 6.02732ZM12 16.2474C9.79085 16.2474 7.99995 14.4463 7.99995 12.2246C7.99995 10.0029 9.79085 8.20179 12 8.20179C14.2091 8.20179 16 10.0029 16 12.2246C16 14.4463 14.2091 16.2474 12 16.2474ZM19.8456 5.78248C19.8456 6.58231 19.2009 7.2307 18.4056 7.2307C17.6103 7.2307 16.9656 6.58231 16.9656 5.78248C16.9656 4.98266 17.6103 4.33431 18.4056 4.33431C19.2009 4.33431 19.8456 4.98266 19.8456 5.78248Z" fill="white"/>
</svg>
