<svg width="25" height="25" viewBox="0 0 25 25" fill="none" xmlns="http://www.w3.org/2000/svg">
<path d="M12.8332 2.17451C16.0374 2.17451 16.4169 2.18678 17.6822 2.24484C18.8522 2.29854 19.4876 2.49514 19.9105 2.66037C20.4706 2.8793 20.8704 3.14086 21.2903 3.56314C21.7102 3.98543 21.9703 4.3875 22.1879 4.95077C22.3522 5.37607 22.5477 6.01508 22.6011 7.19168C22.6589 8.46428 22.671 8.84594 22.671 12.0683C22.671 15.2907 22.6589 15.6724 22.6011 16.9449C22.5477 18.1216 22.3522 18.7606 22.1879 19.1859C21.9703 19.7492 21.7102 20.1512 21.2903 20.5735C20.8704 20.9958 20.4706 21.2574 19.9105 21.4763C19.4876 21.6415 18.8522 21.8381 17.6822 21.8918C16.4171 21.9499 16.0376 21.9622 12.8332 21.9622C9.62888 21.9622 9.24938 21.9499 7.98422 21.8918C6.81423 21.8381 6.17884 21.6415 5.756 21.4763C5.19587 21.2574 4.79607 20.9958 4.37618 20.5735C3.95628 20.1512 3.6962 19.7492 3.47856 19.1859C3.31423 18.7606 3.11873 18.1216 3.06534 16.945C3.0076 15.6724 2.99541 15.2907 2.99541 12.0683C2.99541 8.84594 3.0076 8.46428 3.06534 7.19173C3.11873 6.01508 3.31423 5.37607 3.47856 4.95077C3.6962 4.3875 3.95628 3.98543 4.37618 3.56314C4.79607 3.14086 5.19587 2.8793 5.756 2.66037C6.17884 2.49514 6.81423 2.29854 7.98417 2.24484C9.24957 2.18678 9.62907 2.17451 12.8332 2.17451ZM12.8332 0C9.5742 0 9.1656 0.0138927 7.88567 0.0726245C6.60836 0.131261 5.73608 0.335241 4.97275 0.633595C4.18364 0.942009 3.51443 1.35466 2.84732 2.02558C2.1802 2.69649 1.76988 3.36951 1.46321 4.16311C1.16655 4.93079 0.963722 5.80803 0.905418 7.09261C0.847018 8.37978 0.833252 8.79076 0.833252 12.0683C0.833252 15.3459 0.847018 15.7569 0.905418 17.0441C0.963722 18.3286 1.16655 19.2059 1.46321 19.9736C1.76988 20.7671 2.1802 21.4402 2.84732 22.1111C3.51443 22.782 4.18364 23.1947 4.97275 23.5031C5.73608 23.8014 6.60836 24.0054 7.88567 24.064C9.1656 24.1228 9.5742 24.1366 12.8332 24.1366C16.0923 24.1366 16.5009 24.1228 17.7808 24.064C19.0581 24.0054 19.9304 23.8014 20.6937 23.5031C21.4828 23.1947 22.152 22.782 22.8191 22.1111C23.4863 21.4402 23.8966 20.7672 24.2032 19.9736C24.4999 19.2059 24.7027 18.3286 24.761 17.0441C24.8194 15.7569 24.8333 15.3459 24.8333 12.0683C24.8333 8.79076 24.8194 8.37978 24.761 7.09261C24.7027 5.80803 24.4999 4.93079 24.2032 4.16311C23.8966 3.36951 23.4863 2.69649 22.8191 2.02558C22.152 1.35466 21.4828 0.942009 20.6937 0.633595C19.9304 0.335241 19.0581 0.131261 17.7808 0.0726245C16.5009 0.0138927 16.0923 0 12.8332 0ZM12.8332 5.87107C9.42996 5.87107 6.67105 8.6457 6.67105 12.0683C6.67105 15.491 9.42996 18.2656 12.8332 18.2656C16.2365 18.2656 18.9954 15.491 18.9954 12.0683C18.9954 8.6457 16.2365 5.87107 12.8332 5.87107ZM12.8332 16.0911C10.6241 16.0911 8.8332 14.29 8.8332 12.0683C8.8332 9.84664 10.6241 8.04554 12.8332 8.04554C15.0424 8.04554 16.8333 9.84664 16.8333 12.0683C16.8333 14.29 15.0424 16.0911 12.8332 16.0911ZM20.6788 5.62623C20.6788 6.42606 20.0342 7.07445 19.2389 7.07445C18.4436 7.07445 17.7988 6.42606 17.7988 5.62623C17.7988 4.82641 18.4436 4.17806 19.2389 4.17806C20.0342 4.17806 20.6788 4.82641 20.6788 5.62623Z" fill="#242728"/>
</svg>
