<?xml version="1.0" encoding="UTF-8"?>
<svg xmlns="http://www.w3.org/2000/svg" xmlns:xlink="http://www.w3.org/1999/xlink" width="80pt" height="80pt" viewBox="0 0 80 80" version="1.1">
<g id="surface19492137">
<path style=" stroke:none;fill-rule:nonzero;fill:rgb(100%,100%,100%);fill-opacity:1;" d="M 3 75 L 3 31.042969 L 35.960938 8.265625 C 37.152344 7.441406 38.550781 7.003906 40 7.003906 C 41.449219 7.003906 42.847656 7.441406 44.039062 8.265625 L 77 31.042969 L 77 75 Z M 3 75 "/>
<path style=" stroke:none;fill-rule:nonzero;fill:rgb(40.000001%,40.000001%,40.000001%);fill-opacity:1;" d="M 40 8.003906 C 41.242188 8.003906 42.445312 8.378906 43.46875 9.085938 L 76 31.5625 L 76 74 L 4 74 L 4 31.5625 L 36.53125 9.085938 C 37.554688 8.378906 38.757812 8.003906 40 8.003906 M 40 6.003906 C 38.390625 6.003906 36.78125 6.480469 35.394531 7.441406 L 2 30.515625 L 2 76 L 78 76 L 78 30.515625 L 44.605469 7.441406 C 43.21875 6.484375 41.609375 6.003906 40 6.003906 Z M 40 6.003906 "/>
<path style=" stroke:none;fill-rule:nonzero;fill:rgb(80.000001%,80.000001%,80.000001%);fill-opacity:1;" d="M 50 50 L 30 50 L 4 31.5625 L 36.53125 9.085938 C 37.554688 8.378906 38.757812 8.003906 40 8.003906 C 41.242188 8.003906 42.445312 8.378906 43.46875 9.085938 L 76 31.5625 Z M 50 50 "/>
<path style="fill-rule:nonzero;fill:rgb(100%,100%,100%);fill-opacity:1;stroke-width:1;stroke-linecap:butt;stroke-linejoin:miter;stroke:rgb(40.000001%,40.000001%,40.000001%);stroke-opacity:1;stroke-miterlimit:10;" d="M 7.5 6.5 L 32.499999 6.5 L 32.499999 25.999999 L 7.5 25.999999 Z M 7.5 6.5 " transform="matrix(2,0,0,2,0,0)"/>
<path style=" stroke:none;fill-rule:nonzero;fill:rgb(92.54902%,94.117647%,94.509804%);fill-opacity:1;" d="M 4 31.5625 L 4 74 L 76 74 L 76 31.5625 L 49.574219 48.976562 L 30.679688 49.234375 Z M 4 31.5625 "/>
<path style=" stroke:none;fill-rule:nonzero;fill:rgb(40.000001%,40.000001%,40.000001%);fill-opacity:1;" d="M 49.363281 48 L 30.636719 48 L 5.753906 30.355469 L 4 31.5625 L 30 50 L 50 50 L 76 31.5625 L 74.246094 30.355469 Z M 49.363281 48 "/>
<path style=" stroke:none;fill-rule:nonzero;fill:rgb(40.000001%,40.000001%,40.000001%);fill-opacity:1;" d="M 55 26 L 25 26 C 24.449219 26 24 25.550781 24 25 C 24 24.449219 24.449219 24 25 24 L 55 24 C 55.550781 24 56 24.449219 56 25 C 56 25.550781 55.550781 26 55 26 Z M 55 26 "/>
<path style=" stroke:none;fill-rule:nonzero;fill:rgb(40.000001%,40.000001%,40.000001%);fill-opacity:1;" d="M 47 32 L 25 32 C 24.449219 32 24 31.550781 24 31 C 24 30.449219 24.449219 30 25 30 L 47 30 C 47.550781 30 48 30.449219 48 31 C 48 31.550781 47.550781 32 47 32 Z M 47 32 "/>
<path style=" stroke:none;fill-rule:nonzero;fill:rgb(40.000001%,40.000001%,40.000001%);fill-opacity:1;" d="M 55 38 L 25 38 C 24.449219 38 24 37.550781 24 37 C 24 36.449219 24.449219 36 25 36 L 55 36 C 55.550781 36 56 36.449219 56 37 C 56 37.550781 55.550781 38 55 38 Z M 55 38 "/>
</g>
</svg>
