<svg xmlns="http://www.w3.org/2000/svg" viewBox="0 0 64 64"><path d="M 49.09375 2.328125 L 48.382813 2.398438 C 48.164063 2.417969 42.976563 2.96875 40.984375 6.417969 C 39.257813 9.410156 40.621094 13.382813 41.074219 14.519531 C 40.539063 15.960938 40.105469 17.429688 39.777344 18.925781 C 39.402344 18.558594 39.015625 18.203125 38.625 17.855469 L 38.597656 17.605469 C 38.566406 17.257813 37.707031 9.101563 32.347656 6.007813 C 26.992188 2.914063 19.496094 6.25 19.179688 6.390625 L 18.527344 6.6875 L 18.597656 7.398438 C 18.632813 7.746094 19.492188 15.902344 24.847656 19 C 26.535156 19.972656 28.433594 20.3125 30.25 20.3125 C 33 20.3125 35.566406 19.542969 36.953125 19.035156 C 37.789063 19.761719 38.582031 20.53125 39.332031 21.34375 C 39.167969 22.492188 39.082031 23.652344 39.039063 24.816406 C 38.421875 24.5625 37.8125 24.296875 37.21875 24.007813 C 36.722656 23.765625 36.125 23.972656 35.878906 24.46875 C 35.640625 24.960938 35.84375 25.5625 36.339844 25.804688 C 37.203125 26.226563 38.097656 26.601563 39 26.949219 L 39 28.3125 C 38.484375 28.046875 37.90625 27.902344 37.304688 27.902344 C 35.597656 27.902344 34.15625 29.066406 33.742188 30.644531 C 31.648438 30.9375 29.824219 32.261719 28.894531 34.171875 C 27.199219 34.257813 25.585938 34.933594 24.339844 36.078125 C 22.46875 35.414063 20.46875 35.179688 18.480469 35.410156 L 6.648438 36.796875 C 5.140625 36.976563 4 38.257813 4 39.78125 L 4 52.4375 C 4 53.371094 4.421875 54.230469 5.15625 54.804688 C 5.886719 55.375 6.824219 55.574219 7.726563 55.347656 L 14.289063 53.710938 C 15.960938 53.296875 17.722656 53.503906 19.25 54.308594 L 31.835938 60.9375 C 33.148438 61.628906 34.585938 61.972656 36.027344 61.972656 C 37.449219 61.972656 38.871094 61.640625 40.171875 60.964844 L 61.472656 49.917969 C 63.03125 49.109375 64 47.519531 64 45.753906 C 64 44.296875 63.335938 42.949219 62.183594 42.054688 C 61.03125 41.160156 59.554688 40.859375 58.144531 41.226563 L 57.707031 41.339844 C 57.109375 38.972656 55.613281 36.90625 53.523438 35.605469 C 53.519531 32.832031 51.265625 30.578125 48.496094 30.578125 C 48.308594 30.578125 48.121094 30.59375 47.9375 30.613281 C 47.324219 28.515625 45.394531 27 43.125 27 C 42.371094 27 41.652344 27.179688 41 27.488281 L 41 25.996094 C 41 25.625 41.023438 25.261719 41.035156 24.890625 C 42.050781 24.289063 43.09375 23.730469 44.171875 23.246094 C 45.367188 24.105469 48.40625 26.042969 51.644531 26.042969 C 52.277344 26.042969 52.917969 25.96875 53.550781 25.796875 C 58.261719 24.535156 60.566406 18.539063 60.660156 18.28125 L 60.914063 17.613281 L 60.359375 17.15625 C 60.148438 16.984375 55.152344 12.941406 50.445313 14.203125 C 46.328125 15.308594 44.050781 20.027344 43.480469 21.371094 C 42.710938 21.710938 41.957031 22.085938 41.214844 22.488281 C 41.496094 20.035156 42.054688 17.625 42.90625 15.3125 C 44.425781 15.046875 48.023438 14.140625 49.609375 11.394531 C 51.601563 7.945313 49.480469 3.179688 49.390625 2.980469 Z M 47.839844 4.507813 C 48.277344 5.773438 48.980469 8.484375 47.878906 10.394531 C 47.03125 11.863281 45.238281 12.640625 43.855469 13.035156 C 44.355469 11.953125 44.902344 10.886719 45.53125 9.859375 C 45.816406 9.390625 45.667969 8.773438 45.199219 8.484375 C 44.726563 8.199219 44.109375 8.347656 43.824219 8.820313 C 43.265625 9.730469 42.777344 10.671875 42.3125 11.625 C 42.058594 10.253906 42.011719 8.636719 42.71875 7.414063 C 43.820313 5.503906 46.523438 4.761719 47.839844 4.507813 Z M 26.875 6.695313 C 28.410156 6.6875 29.988281 6.949219 31.347656 7.734375 C 34.410156 9.503906 35.742188 13.539063 36.28125 15.925781 C 35.835938 15.597656 35.386719 15.269531 34.925781 14.964844 L 30.089844 11.734375 C 29.628906 11.425781 29.007813 11.550781 28.703125 12.011719 C 28.394531 12.472656 28.519531 13.089844 28.980469 13.394531 L 33.8125 16.625 C 34.25 16.917969 34.671875 17.222656 35.09375 17.535156 C 32.714844 18.238281 28.785156 18.957031 25.847656 17.261719 C 22.222656 15.167969 21.019531 9.882813 20.691406 7.9375 C 21.851563 7.503906 24.308594 6.714844 26.875 6.695313 Z M 52.066406 15.96875 C 54.664063 15.835938 57.328125 17.453125 58.492188 18.261719 C 57.800781 19.726563 55.933594 23.089844 53.035156 23.863281 C 50.671875 24.5 48.046875 23.304688 46.4375 22.339844 C 46.902344 22.171875 47.367188 22.003906 47.839844 21.859375 L 50.710938 20.984375 C 51.238281 20.820313 51.535156 20.261719 51.375 19.734375 C 51.210938 19.207031 50.652344 18.90625 50.125 19.070313 L 47.25 19.949219 C 46.929688 20.046875 46.609375 20.167969 46.292969 20.277344 C 47.25 18.6875 48.824219 16.710938 50.964844 16.136719 C 51.328125 16.039063 51.699219 15.984375 52.066406 15.96875 Z M 33.25 22 C 32.859375 21.96875 32.46875 22.164063 32.277344 22.53125 C 32.015625 23.015625 32.203125 23.621094 32.6875 23.882813 L 33.917969 24.53125 C 34.066406 24.613281 34.226563 24.648438 34.386719 24.648438 C 34.742188 24.648438 35.089844 24.457031 35.269531 24.117188 C 35.527344 23.628906 35.339844 23.027344 34.855469 22.765625 L 33.628906 22.113281 C 33.507813 22.050781 33.378906 22.011719 33.25 22 Z M 43.125 29 C 44.734375 29 46.058594 30.265625 46.136719 31.882813 C 46.152344 32.199219 46.316406 32.488281 46.578125 32.664063 C 46.84375 32.839844 47.175781 32.882813 47.472656 32.773438 C 47.832031 32.644531 48.167969 32.578125 48.496094 32.578125 C 50.167969 32.578125 51.523438 33.9375 51.523438 35.609375 C 51.523438 35.714844 51.507813 35.820313 51.480469 36.015625 C 51.421875 36.429688 51.632813 36.835938 52 37.03125 C 53.898438 38.035156 55.261719 39.792969 55.773438 41.839844 L 44.734375 44.703125 C 44.46875 43.921875 44.015625 43.207031 43.40625 42.636719 C 42.390625 41.695313 41.023438 41.214844 39.640625 41.3125 L 37.449219 41.46875 C 36.589844 41.53125 35.730469 41.367188 34.953125 41 L 26.4375 36.984375 C 27.273438 36.457031 28.246094 36.160156 29.25 36.160156 L 29.511719 36.175781 C 29.980469 36.203125 30.355469 35.925781 30.5 35.507813 C 31.117188 33.757813 32.769531 32.578125 34.621094 32.578125 C 35.175781 32.578125 35.621094 32.132813 35.621094 31.578125 C 35.621094 30.652344 36.378906 29.894531 37.308594 29.894531 C 37.886719 29.894531 38.417969 30.191406 38.730469 30.6875 C 38.917969 30.992188 39.234375 31.183594 39.613281 31.15625 C 39.972656 31.144531 40.296875 30.941406 40.464844 30.625 C 40.992188 29.621094 42.011719 29 43.125 29 Z M 20.25 37.324219 C 21.78125 37.359375 23.296875 37.710938 24.691406 38.371094 L 34.105469 42.8125 C 35.191406 43.324219 36.394531 43.546875 37.59375 43.464844 L 39.785156 43.308594 C 40.625 43.25 41.429688 43.53125 42.046875 44.105469 C 42.660156 44.675781 43 45.457031 43 46.296875 L 43 46.703125 C 43 47.097656 42.769531 47.457031 42.410156 47.617188 L 39.457031 48.941406 C 37.242188 49.9375 34.679688 49.992188 32.425781 49.089844 L 27.382813 47.070313 C 26.867188 46.863281 26.285156 47.113281 26.082031 47.628906 C 25.875 48.140625 26.125 48.722656 26.640625 48.925781 L 31.683594 50.949219 C 34.441406 52.050781 37.574219 51.984375 40.28125 50.765625 L 43.230469 49.441406 C 44.304688 48.957031 45 47.882813 45 46.703125 L 58.644531 43.160156 C 59.457031 42.953125 60.296875 43.125 60.957031 43.636719 C 61.621094 44.148438 62 44.921875 62 45.765625 C 62 46.769531 61.445313 47.679688 60.554688 48.140625 L 39.25 59.1875 C 37.21875 60.242188 34.792969 60.234375 32.765625 59.167969 L 20.179688 52.539063 C 18.875 51.851563 17.4375 51.5 15.988281 51.5 C 15.257813 51.5 14.527344 51.589844 13.808594 51.769531 L 7.242188 53.410156 C 6.941406 53.484375 6.628906 53.417969 6.386719 53.230469 C 6.140625 53.039063 6 52.75 6 52.4375 L 6 39.78125 C 6 39.273438 6.378906 38.84375 6.882813 38.785156 L 18.714844 37.394531 C 19.226563 37.335938 19.738281 37.3125 20.25 37.324219 Z M 9 40 C 8.449219 40 8 40.449219 8 41 C 8 41.550781 8.449219 42 9 42 L 11 42 C 11.550781 42 12 41.550781 12 41 C 12 40.449219 11.550781 40 11 40 Z M 9 45 C 8.449219 45 8 45.449219 8 46 C 8 46.550781 8.449219 47 9 47 L 11 47 C 11.550781 47 12 46.550781 12 46 C 12 45.449219 11.550781 45 11 45 Z M 9 50 C 8.449219 50 8 50.449219 8 51 C 8 51.550781 8.449219 52 9 52 L 11 52 C 11.550781 52 12 51.550781 12 51 C 12 50.449219 11.550781 50 11 50 Z"/></svg>
