<svg width="24" height="21" viewBox="0 0 24 21" fill="none" xmlns="http://www.w3.org/2000/svg">
  <path fill-rule="evenodd" clip-rule="evenodd" d="M24 2.63504C23.1175 3.03493 22.1669 3.30434 21.173 3.42464C22.1902 2.80449 22.9713 1.82172 23.3369 0.649183C22.3846 1.22359 21.3326 1.64211 20.2091 1.86578C19.3133 0.889791 18.032 0.281494 16.616 0.281494C13.8971 0.281494 11.6934 2.52999 11.6934 5.30037C11.6934 5.69517 11.7349 6.07641 11.8197 6.4441C7.728 6.23399 4.09999 4.23796 1.67024 1.19818C1.24645 1.94203 1.00381 2.80449 1.00381 3.72456C1.00381 5.46473 1.873 7.00156 3.19424 7.90299C2.3882 7.87758 1.6287 7.64883 0.963922 7.27606V7.33706C0.963922 9.77025 2.66076 11.8002 4.91434 12.2593C4.50052 12.378 4.06675 12.4373 3.61637 12.4373C3.29894 12.4373 2.98982 12.4068 2.69067 12.3475C3.31722 14.3418 5.13372 15.7939 7.28925 15.8329C5.60404 17.1799 3.48009 17.9814 1.17499 17.9814C0.776124 17.9814 0.383907 17.9594 0 17.9119C2.1788 19.3352 4.76643 20.1672 7.54685 20.1672C16.6061 20.1672 21.557 12.5186 21.557 5.88325C21.557 5.66636 21.5536 5.44778 21.5437 5.23428C22.5059 4.52602 23.3419 3.64153 24 2.63504Z" fill="white"/>
</svg>
