<svg fill="#000000" xmlns="http://www.w3.org/2000/svg"  viewBox="0 0 64 64" width="64px" height="64px"><path d="M 31 2 C 21.820313 2 13.625 6.292969 8.308594 12.972656 C 8.257813 13.027344 8.199219 13.066406 8.160156 13.128906 C 8.148438 13.148438 8.144531 13.175781 8.132813 13.195313 C 4.296875 18.113281 2 24.292969 2 31 C 2 37.710938 4.296875 43.894531 8.140625 48.8125 C 8.152344 48.832031 8.148438 48.851563 8.164063 48.871094 C 8.21875 48.957031 8.285156 49.027344 8.359375 49.09375 C 13.679688 55.734375 21.847656 60 31 60 C 40.207031 60 48.421875 55.683594 53.738281 48.96875 C 53.769531 48.933594 53.808594 48.90625 53.832031 48.867188 C 53.84375 48.855469 53.84375 48.839844 53.847656 48.824219 C 57.699219 43.902344 60 37.71875 60 31 C 60 24.285156 57.699219 18.101563 53.855469 13.179688 C 53.84375 13.164063 53.847656 13.148438 53.835938 13.132813 C 53.808594 13.089844 53.761719 13.0625 53.730469 13.023438 C 48.414063 6.3125 40.203125 2 31 2 Z M 30 4.078125 L 30 17.984375 C 26.183594 17.917969 22.511719 17.46875 19.171875 16.671875 C 21.53125 9.511719 25.554688 4.710938 30 4.078125 Z M 32 4.078125 C 36.441406 4.710938 40.46875 9.511719 42.828125 16.671875 C 39.488281 17.46875 35.816406 17.917969 32 17.984375 Z M 23.910156 4.953125 C 21.136719 7.398438 18.804688 11.257813 17.21875 16.152344 C 14.742188 15.429688 12.480469 14.515625 10.535156 13.417969 C 14.007813 9.386719 18.636719 6.386719 23.910156 4.953125 Z M 38.085938 4.953125 C 43.359375 6.386719 47.992188 9.386719 51.464844 13.417969 C 49.519531 14.515625 47.257813 15.429688 44.78125 16.152344 C 43.191406 11.257813 40.859375 7.398438 38.085938 4.953125 Z M 9.273438 14.988281 C 11.414063 16.234375 13.90625 17.265625 16.65625 18.066406 C 16.246094 19.582031 15.902344 21.171875 15.636719 22.84375 C 15.546875 23.386719 15.917969 23.898438 16.464844 23.984375 C 16.519531 23.996094 16.570313 24 16.621094 24 C 17.105469 24 17.53125 23.648438 17.609375 23.15625 C 17.863281 21.558594 18.199219 20.035156 18.59375 18.585938 C 22.121094 19.4375 25.988281 19.917969 30 19.984375 L 30 23 C 30 23.550781 30.445313 24 31 24 C 31.550781 24 32 23.550781 32 23 L 32 19.984375 C 36.007813 19.917969 39.878906 19.4375 43.402344 18.585938 C 43.796875 20.035156 44.136719 21.554688 44.390625 23.15625 C 44.476563 23.699219 44.988281 24.078125 45.535156 23.984375 C 46.082031 23.898438 46.453125 23.386719 46.363281 22.84375 C 46.097656 21.171875 45.75 19.582031 45.34375 18.066406 C 48.089844 17.269531 50.585938 16.234375 52.722656 14.992188 C 56.039063 19.472656 58 25.011719 58 31 C 58 36.988281 56.035156 42.527344 52.722656 47.011719 C 50.585938 45.765625 48.085938 44.730469 45.335938 43.929688 C 45.664063 42.726563 45.953125 41.480469 46.191406 40.175781 C 46.292969 39.632813 45.929688 39.113281 45.386719 39.015625 C 44.84375 38.917969 44.324219 39.277344 44.222656 39.820313 C 43.996094 41.070313 43.722656 42.265625 43.410156 43.414063 C 39.882813 42.5625 36.011719 42.082031 32 42.015625 L 32 40 C 32 39.449219 31.554688 39 31 39 C 30.445313 39 30 39.449219 30 40 L 30 42.015625 C 25.988281 42.082031 22.117188 42.5625 18.589844 43.414063 C 18.277344 42.265625 18.003906 41.070313 17.777344 39.820313 C 17.675781 39.277344 17.15625 38.921875 16.613281 39.015625 C 16.070313 39.113281 15.710938 39.636719 15.808594 40.179688 C 16.046875 41.480469 16.335938 42.730469 16.664063 43.933594 C 13.910156 44.730469 11.414063 45.765625 9.273438 47.011719 C 5.960938 42.527344 4 36.988281 4 31 C 4 25.011719 5.964844 19.472656 9.273438 14.988281 Z M 20.890625 25.003906 C 20.503906 25.046875 20.160156 25.316406 20.042969 25.714844 L 17.894531 32.871094 L 15.9375 27.648438 C 15.789063 27.257813 15.417969 27 15 27 C 14.582031 27 14.210938 27.257813 14.0625 27.648438 L 12.105469 32.871094 L 9.957031 25.714844 C 9.796875 25.183594 9.242188 24.886719 8.710938 25.042969 C 8.183594 25.203125 7.886719 25.757813 8.042969 26.285156 L 11.042969 36.285156 C 11.164063 36.699219 11.535156 36.984375 11.96875 37 C 12.414063 37.035156 12.789063 36.753906 12.9375 36.351563 L 15 30.847656 L 17.0625 36.351563 C 17.210938 36.742188 17.585938 37 18 37 L 18.03125 37 C 18.464844 36.984375 18.835938 36.699219 18.957031 36.285156 L 21.957031 26.285156 C 22.113281 25.757813 21.816406 25.203125 21.285156 25.042969 C 21.152344 25.003906 21.019531 24.988281 20.890625 25.003906 Z M 36.890625 25.003906 C 36.503906 25.046875 36.160156 25.316406 36.042969 25.714844 L 33.894531 32.871094 L 31.9375 27.648438 C 31.789063 27.257813 31.417969 27 31 27 C 30.582031 27 30.210938 27.257813 30.0625 27.648438 L 28.105469 32.871094 L 25.957031 25.714844 C 25.796875 25.183594 25.242188 24.886719 24.714844 25.042969 C 24.183594 25.203125 23.886719 25.757813 24.042969 26.285156 L 27.042969 36.285156 C 27.164063 36.699219 27.535156 36.984375 27.96875 37 C 28.398438 37.035156 28.785156 36.753906 28.9375 36.351563 L 31 30.847656 L 33.0625 36.351563 C 33.210938 36.742188 33.585938 37 34 37 L 34.03125 37 C 34.464844 36.984375 34.835938 36.699219 34.957031 36.285156 L 37.957031 26.285156 C 38.113281 25.757813 37.816406 25.203125 37.285156 25.042969 C 37.152344 25.003906 37.019531 24.988281 36.890625 25.003906 Z M 52.890625 25.003906 C 52.503906 25.046875 52.160156 25.316406 52.042969 25.714844 L 49.894531 32.871094 L 47.9375 27.648438 C 47.789063 27.257813 47.417969 27 47 27 C 46.582031 27 46.210938 27.257813 46.0625 27.648438 L 44.105469 32.871094 L 41.957031 25.714844 C 41.796875 25.183594 41.242188 24.886719 40.714844 25.042969 C 40.183594 25.203125 39.886719 25.757813 40.042969 26.285156 L 43.042969 36.285156 C 43.164063 36.699219 43.535156 36.984375 43.96875 37 C 44.421875 37.035156 44.789063 36.753906 44.9375 36.351563 L 47 30.847656 L 49.0625 36.351563 C 49.210938 36.742188 49.585938 37 50 37 L 50.03125 37 C 50.464844 36.984375 50.835938 36.699219 50.957031 36.285156 L 53.957031 26.285156 C 54.113281 25.757813 53.816406 25.203125 53.285156 25.042969 C 53.152344 25.003906 53.019531 24.988281 52.890625 25.003906 Z M 30 44.015625 L 30 57.921875 C 25.53125 57.300781 21.515625 52.550781 19.15625 45.328125 C 22.5 44.53125 26.179688 44.082031 30 44.015625 Z M 32 44.015625 C 35.820313 44.082031 39.5 44.535156 42.84375 45.332031 C 40.484375 52.550781 36.46875 57.304688 32 57.921875 Z M 17.238281 45.84375 C 18.835938 50.734375 21.183594 54.613281 23.96875 57.0625 C 18.671875 55.632813 14.019531 52.628906 10.535156 48.582031 C 12.484375 47.480469 14.753906 46.5625 17.238281 45.84375 Z M 44.761719 45.84375 C 47.246094 46.5625 49.515625 47.480469 51.464844 48.582031 C 47.980469 52.628906 43.328125 55.632813 38.03125 57.0625 C 40.8125 54.613281 43.164063 50.734375 44.761719 45.84375 Z"/></svg>