<svg width="24" height="18" viewBox="0 0 24 18" fill="none" xmlns="http://www.w3.org/2000/svg">
<path fill-rule="evenodd" clip-rule="evenodd" d="M20.8022 17.0996C22.0502 16.9262 23.0604 16.0016 23.2982 14.7883C23.536 13.4596 23.7737 11.4949 23.8333 9.06828C23.8333 6.64161 23.536 4.67699 23.2982 3.34828C23.0609 2.13494 22.0502 1.21032 20.8022 1.03699C18.7812 0.748278 15.5718 0.401611 11.8869 0.401611C8.20192 0.401611 4.93296 0.748278 2.97158 1.03699C1.72358 1.21032 0.713375 2.13494 0.475583 3.34828C0.237792 4.67699 0 6.64161 0 9.06828C0 11.4949 0.237792 13.4596 0.475583 14.7883C0.712833 16.0016 1.72358 16.9262 2.97158 17.0996C4.99254 17.3883 8.2615 17.7349 11.8869 17.7349C15.5718 17.7349 18.8408 17.3883 20.8022 17.0996ZM9.20833 4.9695V13.1676C9.20833 13.5706 9.65683 13.8106 9.99213 13.588L16.1411 9.48862C16.4407 9.28875 16.4407 8.84892 16.1411 8.64958L9.99213 4.55025C9.65683 4.32654 9.20833 4.56704 9.20833 4.9695Z" fill="#242728"/>
</svg>
